<svg width="37" height="44" viewBox="0 0 37 44" fill="none" xmlns="http://www.w3.org/2000/svg">
<path d="M3.68769 2.7166C4.45584 1.37233 5.8854 0.542725 7.43366 0.542725H29.5838C31.1321 0.542725 32.5616 1.37233 33.3298 2.7166L35.7952 7.03104C37.193 9.47713 35.8999 12.4313 33.4443 13.2602C33.4532 13.4356 33.4515 13.6135 33.4387 13.7934L31.5896 39.68C31.4284 41.9378 29.5497 43.6871 27.2862 43.6871H9.73125C7.46774 43.6871 5.58905 41.9378 5.42778 39.68L3.57874 13.7934C3.56589 13.6135 3.56423 13.4356 3.57315 13.2602C1.11754 12.4313 -0.175462 9.47711 1.22229 7.03104L3.68769 2.7166ZM7.88221 13.486L8.34447 19.9577H28.673L29.1352 13.486H7.88221ZM9.26899 32.901L9.73125 39.3726H27.2862L27.7484 32.901H9.26899ZM32.0492 9.1716L29.5838 4.85716L7.43366 4.85716L4.96827 9.1716H32.0492Z" fill="#F3BD19"/>
</svg>
