<svg width="58" height="61" viewBox="0 0 58 61" fill="none" xmlns="http://www.w3.org/2000/svg">
<path d="M55.0108 31.0486C54.7694 30.5547 54.7694 29.9882 55.0108 29.4944L57.2486 24.9165C58.4945 22.3675 57.5073 19.3295 55.0012 17.9997L50.5 15.6115C50.0144 15.3539 49.6815 14.8955 49.5864 14.3542L48.7061 9.33519C48.2159 6.54075 45.631 4.66295 42.8224 5.06033L37.7772 5.774C37.2326 5.85087 36.6941 5.6758 36.2991 5.29365L32.6369 1.75086C30.5977 -0.221866 27.4032 -0.221983 25.3642 1.75086L21.7018 5.294C21.3067 5.67626 20.7682 5.85099 20.2238 5.77435L15.1785 5.06068C12.369 4.66307 9.785 6.5411 9.29481 9.33554L8.4145 14.3543C8.31946 14.8957 7.98654 15.354 7.50103 15.6117L2.99989 18C0.49373 19.3296 -0.493452 22.3679 0.752478 24.9168L2.99016 29.4946C3.23157 29.9885 3.23157 30.555 2.99016 31.0489L0.752361 35.6266C-0.493569 38.1756 0.493612 41.2136 2.99977 42.5434L7.50092 44.9316C7.98654 45.1892 8.31946 45.6476 8.4145 46.1889L9.29481 51.2079C9.74106 53.7518 11.9224 55.5359 14.4294 55.5356C14.6763 55.5356 14.9268 55.5183 15.1786 55.4827L20.2239 54.769C20.768 54.6918 21.3068 54.8672 21.702 55.2493L25.3642 58.7921C26.3839 59.7786 27.692 60.2717 29.0005 60.2716C30.3086 60.2715 31.6175 59.7784 32.6368 58.7921L36.2991 55.2493C36.6943 54.8672 37.2328 54.6926 37.7772 54.769L42.8224 55.4827C45.6323 55.8801 48.2159 54.0022 48.7061 51.2078L49.5866 46.189C49.6816 45.6476 50.0145 45.1893 50.5 44.9316L55.0012 42.5434C57.5073 41.2137 58.4945 38.1754 57.2486 35.6265L55.0108 31.0486ZM22.0793 14.6991C25.5776 14.6991 28.4237 17.5452 28.4237 21.0434C28.4237 24.5417 25.5776 27.3878 22.0793 27.3878C18.581 27.3878 15.7349 24.5417 15.7349 21.0434C15.7349 17.5452 18.581 14.6991 22.0793 14.6991ZM18.8046 42.9141C18.4668 43.252 18.0239 43.421 17.5812 43.421C17.1385 43.421 16.6955 43.2521 16.3578 42.9141C15.6821 42.2384 15.6821 41.1429 16.3578 40.4672L39.1962 17.6287C39.8718 16.953 40.9675 16.953 41.6432 17.6287C42.3189 18.3044 42.3189 19.4 41.6432 20.0757L18.8046 42.9141ZM35.9214 45.844C32.4232 45.844 29.577 42.9979 29.577 39.4997C29.577 36.0014 32.4232 33.1553 35.9214 33.1553C39.4197 33.1553 42.2658 36.0014 42.2658 39.4997C42.2658 42.9979 39.4197 45.844 35.9214 45.844Z" fill="#F3BD19"/>
<path d="M35.921 36.6158C34.3309 36.6158 33.0371 37.9095 33.0371 39.4996C33.0371 41.0897 34.3307 42.3833 35.921 42.3833C37.5111 42.3833 38.8047 41.0897 38.8047 39.4996C38.8047 37.9095 37.5111 36.6158 35.921 36.6158Z" fill="#F3BD19"/>
<path d="M22.0781 18.1595C20.488 18.1595 19.1943 19.4531 19.1943 21.0433C19.1943 22.6334 20.488 23.9271 22.0781 23.9271C23.6682 23.9271 24.9619 22.6335 24.9619 21.0433C24.9618 19.4533 23.6682 18.1595 22.0781 18.1595Z" fill="#F3BD19"/>
</svg>
