<svg width="55" height="49" viewBox="0 0 55 49" fill="none" xmlns="http://www.w3.org/2000/svg">
<path d="M20.7363 36.9904H17.2134V35.2289C17.2211 28.4224 22.737 22.9066 29.5435 22.8988H36.5892C43.3958 22.9066 48.9116 28.4224 48.9193 35.2289V36.9904H45.3965V35.2289C45.3906 30.3672 41.4509 26.4275 36.5892 26.4217H29.5435C24.6818 26.4275 20.7421 30.3672 20.7363 35.2289V36.9904ZM33.0664 21.1374C28.2023 21.1374 24.2591 17.1942 24.2591 12.3302C24.2591 7.46607 28.2023 3.52295 33.0664 3.52295C37.9305 3.52295 41.8736 7.46607 41.8736 12.3302C41.8678 17.1918 37.928 21.1315 33.0664 21.1374ZM33.0664 7.04583C30.1479 7.04583 27.782 9.41171 27.782 12.3302C27.782 15.2486 30.1479 17.6145 33.0664 17.6145C35.9848 17.6145 38.3507 15.2486 38.3507 12.3302C38.3507 9.41171 35.9848 7.04583 33.0664 7.04583Z" fill="#F3BD19"/>
<g clip-path="url(#clip0)">
<path d="M9.28412 45.2169H11.7841V42.7169V40.957C11.7891 37.4749 14.6107 34.6532 18.0929 34.6483C18.0934 34.6483 18.0938 34.6483 18.0943 34.6483H25.1341C25.1346 34.6483 25.1351 34.6483 25.1356 34.6483C28.6177 34.6532 31.4394 37.4749 31.4443 40.957C31.4443 40.9575 31.4443 40.958 31.4443 40.9585L31.4443 42.7169V45.2169H33.9443H37.4672H39.9672V42.7169L39.9672 40.9555L39.9672 40.9526C39.9594 34.0953 35.3025 28.3275 28.9789 26.6311C31.3895 24.5583 32.9173 21.4876 32.9214 18.0597V18.0567C32.9214 11.8119 27.859 6.74951 21.6142 6.74951C15.3694 6.74951 10.307 11.8119 10.307 18.0567C10.307 21.4861 11.8337 24.5588 14.2444 26.6325C7.9234 28.3305 3.26905 34.0972 3.26123 40.9526V40.9555V42.7169V45.2169H5.76123H9.28412ZM18.8299 18.0567C18.8299 16.519 20.0765 15.2724 21.6142 15.2724C23.152 15.2724 24.3985 16.519 24.3985 18.0567C24.3985 19.5945 23.152 20.8411 21.6142 20.8411C20.0765 20.8411 18.8299 19.5945 18.8299 18.0567Z" fill="#F3BD19" stroke="white" stroke-width="5"/>
</g>
<defs>
<clipPath id="clip0">
<rect width="42.2746" height="42.2746" fill="white" transform="translate(0.477051 5.72656)"/>
</clipPath>
</defs>
</svg>
