<svg width="31" height="30" viewBox="0 0 31 30" fill="none" xmlns="http://www.w3.org/2000/svg">
<path d="M0 15.0903C0.00180343 22.5148 5.54633 28.8364 13.0769 30V19.452H9.14468V15.0903H13.0815V11.77C12.9056 10.1966 13.4574 8.62862 14.5875 7.49117C15.7176 6.35372 17.3088 5.76473 18.9295 5.88394C20.0928 5.90224 21.2532 6.00312 22.4014 6.18579V9.897H20.4422C19.7678 9.81098 19.0897 10.0279 18.599 10.4866C18.1083 10.9453 17.8581 11.5962 17.9189 12.2559V15.0903H22.2138L21.5272 19.4535H17.9189V30C26.0631 28.7467 31.774 21.5042 30.9145 13.5193C30.0549 5.53436 22.9257 -0.3976 14.6917 0.0208346C6.45764 0.439269 0.00130889 7.06161 0 15.0903Z" fill="black"/>
</svg>
