<svg width="60" height="61" viewBox="0 0 60 61" fill="none" xmlns="http://www.w3.org/2000/svg">
<g clip-path="url(#clip0)">
<path d="M46.972 5.76646H12.8799L13.34 2.26934C13.4899 1.12568 14.4609 0.271477 15.6113 0.271477H44.2406C45.391 0.271477 46.362 1.12568 46.5131 2.26946L46.972 5.76646Z" fill="#F3BD19"/>
<path d="M49.0948 15.8367H10.7555C9.76837 15.8367 8.99361 14.9881 9.08094 14.0023L9.65563 7.50961C9.74259 6.52268 10.5666 5.76644 11.555 5.76644H48.2967C49.2839 5.76644 50.1078 6.52268 50.1947 7.50961L50.7694 14.0023C50.8566 14.9881 50.0819 15.8367 49.0948 15.8367Z" fill="#F3BD19"/>
<path d="M48.9193 15.8362L44.2876 58.4029C44.1716 59.4657 43.2763 60.2714 42.2099 60.2714H17.6407C16.5732 60.2714 15.6779 59.4657 15.5619 58.4029L10.9302 15.8362H48.9193Z" fill="#F3BD19"/>
<path d="M48.0314 24.0069L45.5434 46.8507L45.1555 50.4202H14.6936L14.3058 46.8507L11.8179 24.0069H48.0314Z" fill="#FAFAFA"/>
<path d="M35.5584 39.7895L32.8908 42.6634C31.7341 43.9099 30.1633 44.5405 28.5901 44.5405C27.8902 44.5405 27.1903 44.4156 26.5246 44.1646C26.102 44.0066 25.6928 43.796 25.3069 43.534C25.0577 43.365 24.8171 43.174 24.5887 42.9609C24.3602 42.7479 24.1526 42.5213 23.9669 42.2826C22.2093 40.0418 22.2923 36.7883 24.2918 34.6381L26.9595 31.7643C27.6007 31.0737 28.369 30.5716 29.1947 30.263C30.9413 29.608 32.9445 29.8088 34.5434 30.8937C34.7938 31.0626 35.0332 31.2537 35.2616 31.4667C35.49 31.6798 35.6976 31.9063 35.8845 32.1451C37.641 34.3871 37.5579 37.6381 35.5584 39.7895Z" fill="#F3BD19"/>
<path d="M30.0264 38.4536L25.3067 43.534C25.0575 43.365 24.8169 43.174 24.5885 42.9609C24.3601 42.7479 24.1525 42.5213 23.9668 42.2825L28.6852 37.2009C29.0297 36.8299 29.6098 36.8091 29.9799 37.1556C30.3502 37.5009 30.3708 38.0814 30.0264 38.4536Z" fill="#FAFAFA"/>
<path d="M35.885 32.1451L32.9805 35.2724C32.7997 35.4671 32.5542 35.5651 32.3099 35.5651C32.0864 35.5651 31.8616 35.4842 31.6857 35.3189C31.3144 34.9736 31.2937 34.392 31.6393 34.021L34.5439 30.8936C34.7943 31.0626 35.0337 31.2536 35.2621 31.4667C35.4904 31.6798 35.698 31.9063 35.885 32.1451Z" fill="#FAFAFA"/>
</g>
<defs>
<clipPath id="clip0">
<rect width="59.8507" height="60" fill="white" transform="translate(0 0.271484)"/>
</clipPath>
</defs>
</svg>
