<svg width="60" height="61" viewBox="0 0 60 61" fill="none" xmlns="http://www.w3.org/2000/svg">
<path d="M12.854 25.5789L7.09814 40.9319V40.9331C8.50665 46.5601 11.6026 51.5344 15.9851 55.2865L23.2069 52.5785C15.5362 45.7081 11.7501 35.6024 12.854 25.5789Z" fill="#F3BD19"/>
<path d="M5.14911 46.1289L0.737268 57.8926C0.209956 59.2976 1.58448 60.6874 3.00002 60.1554L12.3077 56.6658C9.18574 53.6357 6.76397 50.0247 5.14911 46.1289Z" fill="#F3BD19"/>
<path d="M25.1936 24.147L18.6327 17.5861C13.3131 29.5856 16.9498 43.3009 26.9864 51.1617L33.9891 48.5357C27.839 42.1846 24.5126 33.3195 25.1936 24.147Z" fill="#F3BD19"/>
<path d="M28.6255 27.5792C28.895 35.0377 32.1432 42.0861 37.639 47.1659H37.6402L42.7727 45.2418C43.9714 44.7918 44.2995 43.2532 43.3984 42.3521L28.6255 27.5792Z" fill="#F3BD19"/>
<path d="M41.4626 33.1013C42.1491 33.7878 43.2619 33.7878 43.9484 33.1013C50.5611 26.4886 57 28.533 57.0644 28.5544C57.9853 28.8613 58.9807 28.3636 59.2877 27.4427C59.5949 26.522 59.097 25.5263 58.1761 25.2193C57.8294 25.1039 49.5947 22.4835 41.4627 30.6156C40.7762 31.3019 40.7761 32.415 41.4626 33.1013Z" fill="#F3BD19"/>
<path d="M30.2781 19.4293C38.4104 11.2982 35.7891 3.06271 35.6742 2.71586C35.3672 1.79482 34.3712 1.29798 33.4502 1.60499C32.5303 1.912 32.0323 2.90686 32.3393 3.8279C32.3604 3.89235 34.4052 10.3314 27.7915 16.9439C27.1094 17.626 27.1025 18.7382 27.7915 19.4293C28.4816 20.1193 29.5935 20.1139 30.2781 19.4293Z" fill="#F3BD19"/>
<path d="M34.006 23.1583C33.3196 23.8448 33.3196 24.9576 34.006 25.6441C34.6862 26.3243 35.7913 26.3332 36.4814 25.6545C37.3894 25.2021 40.2078 26.8991 41.7742 25.3333C43.3236 23.7837 41.6774 21.0226 42.0886 20.0549C43.0575 19.6427 45.8176 21.2898 47.3671 19.7404C48.9169 18.1908 47.2705 15.4297 47.6817 14.4619C48.6521 14.0495 51.4106 15.6969 52.9601 14.1474C54.5099 12.5978 52.8635 9.83668 53.2747 8.86888C54.2393 8.45864 57.0048 10.1022 58.5533 8.55425C60.119 6.98837 58.4251 4.16491 58.8743 3.26157C59.5504 2.57442 59.5468 1.46929 58.8639 0.786248C58.1775 0.099805 57.0646 0.099805 56.3781 0.786248C54.9927 2.17167 55.2637 4.12753 55.5247 5.52584C54.1264 5.26488 52.1706 4.99384 50.7852 6.37915C49.3998 7.76458 49.6708 9.72043 49.9318 11.1187C48.5335 10.8579 46.5775 10.5866 45.1922 11.9722C43.8068 13.3576 44.0779 15.3135 44.3389 16.7118C42.9403 16.4508 40.9846 16.1797 39.5993 17.5651C38.2139 18.9505 38.4849 20.9064 38.7459 22.3047C37.3474 22.0439 35.3913 21.7729 34.006 23.1583Z" fill="#F3BD19"/>
<path d="M43.9488 8.24363C44.6353 7.55719 44.6353 6.44432 43.9488 5.75788C43.2624 5.07144 42.1495 5.07144 41.4631 5.75788C40.7766 6.44432 40.7766 7.55719 41.4631 8.24363C42.1495 8.93007 43.2624 8.93007 43.9488 8.24363Z" fill="#F3BD19"/>
<path d="M55.1342 21.1873C56.1049 21.1873 56.8919 20.4004 56.8919 19.4296C56.8919 18.4589 56.1049 17.6719 55.1342 17.6719C54.1634 17.6719 53.3765 18.4589 53.3765 19.4296C53.3765 20.4004 54.1634 21.1873 55.1342 21.1873Z" fill="#F3BD19"/>
<path d="M51.4064 35.5872C50.72 36.2736 50.72 37.3865 51.4064 38.0729C52.0929 38.7593 53.2057 38.7593 53.8922 38.0729C54.5786 37.3865 54.5786 36.2736 53.8922 35.5872C53.2059 34.9007 52.0929 34.9007 51.4064 35.5872Z" fill="#F3BD19"/>
<path d="M26.5489 10.7294C27.2354 10.043 27.2354 8.93009 26.5489 8.24365C25.8625 7.5572 24.7496 7.5572 24.0632 8.24365C23.3767 8.92997 23.3767 10.043 24.0632 10.7294C24.7496 11.4158 25.8626 11.4158 26.5489 10.7294Z" fill="#F3BD19"/>
</svg>
