<svg width="60" height="30" viewBox="0 0 60 30" fill="none" xmlns="http://www.w3.org/2000/svg">
<path d="M45.8929 0.700981C37.4529 0.700981 31.8674 7.66063 26.9398 13.8023C22.7296 19.0489 18.754 24.0031 13.9118 24.0031C8.8788 24.0031 5.78864 18.7861 5.78864 15.0461C5.78864 11.5784 9.17859 6.5391 14.4916 6.5391C19.647 6.5391 22.3328 10.7005 22.4683 10.9138C23.3035 12.277 25.0769 12.7059 26.4352 11.8704C27.8003 11.0316 28.2328 9.23549 27.4007 7.85874C27.2241 7.56717 22.9783 0.70138 14.4916 0.70138C5.95181 0.70138 0 8.26214 0 15.0465C0 22.0444 5.7134 29.8417 13.9114 29.8417C21.5147 29.8417 26.5604 23.555 31.439 17.4748C35.952 11.852 40.2152 6.5395 45.8929 6.5395C49.271 6.5395 51.4907 7.69538 52.6772 10.0703C53.7053 12.1312 53.7045 14.4633 53.7037 15.2713C53.7037 15.7346 53.4609 18.0584 52.337 20.1509C51.0555 22.5345 49.2362 23.6441 46.607 23.6441C41.3126 23.6441 38.4521 20.1732 37.3749 18.866C37.0949 18.5257 36.8934 18.2808 36.6241 18.0484C35.4114 17.0007 33.5834 17.1413 32.5427 18.3659C31.5391 19.547 31.6358 21.3028 32.732 22.3656C32.7842 22.4255 32.8472 22.5042 32.9221 22.5956C34.3259 24.2995 38.5947 29.4814 46.6058 29.4814C56.3424 29.4814 59.4911 19.9064 59.4911 15.2314C59.4919 12.2538 58.9391 9.6345 57.8461 7.44455C56.3115 4.36913 52.9912 0.700981 45.8929 0.700981Z" fill="#F3BD19"/>
</svg>
