<svg width="134" height="137" viewBox="0 0 134 137" fill="none" xmlns="http://www.w3.org/2000/svg">
<g opacity="0.05">
<rect x="4.51074" width="35.9455" height="14.9208" rx="7.46038" fill="#356FB4"/>
<rect x="4.51074" y="40.6931" width="35.9455" height="14.9208" rx="7.46038" fill="#356FB4"/>
<rect x="4.51074" y="81.3862" width="35.9455" height="14.9208" rx="7.46038" fill="#356FB4"/>
<rect x="4.51074" y="122.079" width="35.9455" height="14.9208" rx="7.46038" fill="#356FB4"/>
<rect x="48.5952" width="35.9455" height="14.9208" rx="7.46038" fill="#356FB4"/>
<rect x="48.5952" y="122.079" width="35.9455" height="14.9208" rx="7.46038" fill="#356FB4"/>
<rect x="26.8921" y="20.3464" width="35.9455" height="14.9208" rx="7.46038" fill="#356FB4"/>
<rect x="26.8921" y="101.732" width="35.9455" height="14.9208" rx="7.46038" fill="#356FB4"/>
<rect x="92.6792" width="35.9455" height="14.9208" rx="7.46038" fill="#356FB4"/>
<rect x="92.6792" y="40.6929" width="35.9455" height="14.9208" rx="7.46038" fill="#356FB4"/>
<rect x="92.6792" y="81.3862" width="35.9455" height="14.9208" rx="7.46038" fill="#356FB4"/>
<rect x="92.6792" y="122.079" width="35.9455" height="14.9208" rx="7.46038" fill="#356FB4"/>
<rect x="70.9766" y="20.3464" width="35.9455" height="14.9208" rx="7.46038" fill="#356FB4"/>
<rect x="70.9766" y="101.732" width="35.9455" height="14.9208" rx="7.46038" fill="#356FB4"/>
<rect x="114.697" y="20.7095" width="19.1163" height="14.3372" rx="7.1686" fill="#356FB4"/>
<rect y="20.7095" width="19.1163" height="14.3372" rx="7.1686" fill="#356FB4"/>
<rect y="61.3313" width="19.1163" height="14.3372" rx="7.1686" fill="#356FB4"/>
<rect y="101.953" width="19.1163" height="14.3372" rx="7.1686" fill="#356FB4"/>
<rect x="114.697" y="61.3315" width="19.1163" height="14.3372" rx="7.1686" fill="#356FB4"/>
<rect x="114.697" y="101.953" width="19.1163" height="14.3372" rx="7.1686" fill="#356FB4"/>
</g>
</svg>
