<svg width="28" height="28" viewBox="0 0 28 28" fill="none" xmlns="http://www.w3.org/2000/svg">
<path d="M14.0029 27.5614C10.3129 27.5614 9.87793 27.5419 8.43793 27.4789C7.31499 27.442 6.20658 27.2137 5.16043 26.8039C3.3504 26.0995 1.91914 24.6677 1.21543 22.8574C0.821389 21.8075 0.608856 20.6982 0.58693 19.5769C0.50293 18.1399 0.50293 17.6689 0.50293 14.0074C0.50293 10.3069 0.52243 9.87495 0.58693 8.44245C0.609336 7.32273 0.821861 6.21496 1.21543 5.16645C1.91838 3.35374 3.35196 1.9207 5.16493 1.21845C6.2129 0.82275 7.32095 0.609663 8.44093 0.588446C9.87343 0.507446 10.3444 0.507446 14.0029 0.507446C17.7229 0.507446 18.1504 0.526946 19.5679 0.588446C20.6908 0.609846 21.8018 0.822911 22.8529 1.21845C24.6654 1.9215 26.0987 3.35426 26.8024 5.16645C27.2031 6.23024 27.4168 7.35532 27.4339 8.49195C27.5179 9.92895 27.5179 10.3984 27.5179 14.0584C27.5179 17.7184 27.4969 18.1984 27.4339 19.6189C27.4116 20.7412 27.1986 21.8516 26.8039 22.9024C26.0984 24.714 24.665 26.1463 22.8529 26.8504C21.8033 27.2437 20.6946 27.4562 19.5739 27.4789C18.1414 27.5614 17.6719 27.5614 14.0029 27.5614ZM13.9519 2.88195C10.2829 2.88195 9.90193 2.89995 8.46943 2.96445C7.61441 2.97577 6.76765 3.13356 5.96593 3.43095C4.78206 3.88396 3.84527 4.81693 3.38743 5.99895C3.08775 6.80939 2.92994 7.66541 2.92093 8.52945C2.84143 9.98295 2.84143 10.3639 2.84143 14.0074C2.84143 17.6074 2.85493 18.0439 2.92093 19.4884C2.93436 20.3437 3.09207 21.1906 3.38743 21.9934C3.84594 23.1747 4.78257 24.107 5.96593 24.5599C6.7671 24.8593 7.61421 25.0172 8.46943 25.0264C9.92143 25.1104 10.3039 25.1104 13.9519 25.1104C17.6314 25.1104 18.0124 25.0924 19.4329 25.0264C20.2885 25.016 21.1359 24.8582 21.9379 24.5599C23.1146 24.103 24.0453 23.1729 24.5029 21.9964C24.802 21.1853 24.9598 20.3289 24.9694 19.4644H24.9859C25.0504 18.0304 25.0504 17.6479 25.0504 13.9834C25.0504 10.3189 25.0339 9.93345 24.9694 8.50095C24.956 7.64662 24.7983 6.80071 24.5029 5.99895C24.0464 4.82081 23.1155 3.88888 21.9379 3.43095C21.1361 3.13206 20.2886 2.97423 19.4329 2.96445C17.9824 2.88195 17.6029 2.88195 13.9519 2.88195ZM14.0029 20.9359C11.1979 20.9378 8.66806 19.2495 7.59322 16.6586C6.51839 14.0677 7.11029 11.0844 9.09288 9.10014C11.0755 7.11583 14.0582 6.52135 16.6501 7.59394C19.2419 8.66654 20.9323 11.1949 20.9329 13.9999C20.9288 17.8265 17.8295 20.9285 14.0029 20.9359ZM14.0029 9.49695C11.5176 9.49695 9.50293 11.5117 9.50293 13.9969C9.50293 16.4822 11.5176 18.4969 14.0029 18.4969C16.4882 18.4969 18.5029 16.4822 18.5029 13.9969C18.4972 11.5141 16.4858 9.50272 14.0029 9.49695ZM21.2029 8.42745C20.3111 8.42414 19.5903 7.69933 19.5919 6.80746C19.5936 5.91559 20.3171 5.19346 21.2089 5.19346C22.1008 5.19346 22.8243 5.91558 22.8259 6.80745C22.8263 7.23774 22.6554 7.65048 22.3508 7.95446C22.0463 8.25845 21.6332 8.42864 21.2029 8.42745Z" fill="black"/>
</svg>
