<svg width="50" height="42" viewBox="0 0 50 42" fill="none" xmlns="http://www.w3.org/2000/svg">
<path d="M33.0351 0.416016H12.3812C11.4374 0.416016 10.549 1.07344 10.3269 2.00479C10.0493 3.26485 11.0487 4.41534 12.2702 4.41534H21.1536C21.9864 5.12755 23.2634 6.71632 21.2091 8.46945H16.4343C15.3238 8.46945 14.4355 9.34601 14.4355 10.4417C14.4355 11.5374 15.3238 12.414 16.4343 12.414H20.987C21.098 12.6331 22.5971 14.0028 21.098 15.7559H9.10547C8.3837 15.7559 7.66192 16.249 7.55088 16.9612C7.38432 17.8925 8.10609 18.7143 9.04995 18.7143L21.4867 18.6595C21.9309 19.0978 22.4306 20.577 21.4867 21.9466H13.3806C12.6588 21.9466 11.9371 22.4397 11.826 23.1519C11.6594 24.0832 12.3812 24.905 13.3251 24.905H19.3214C19.9876 25.3981 21.0425 26.9321 19.3214 28.6304H6.05181C5.44108 28.6304 4.88586 29.0139 4.77482 29.6165C4.60826 30.3835 5.21899 31.0957 5.99629 31.0957L15.2128 31.1505C15.657 31.5888 16.2677 33.1776 15.3794 34.8759H1.49907C0.666255 34.8759 0 35.5334 0 36.3551C0 37.1769 0.666255 37.8343 1.49907 37.8343H16.3787C17.2116 37.8343 17.8778 37.1769 17.8778 36.3551C17.8778 35.9169 17.6557 35.4786 17.3226 35.2046H22.375L25.0956 24.905H28.0937C28.8155 24.905 29.5373 24.412 29.6483 23.6997C29.8149 22.7684 29.0931 21.9466 28.1492 21.9466H25.8173L28.3158 12.414H30.2035C31.3139 12.414 32.2023 11.5374 32.2023 10.4417C32.2023 9.34601 31.3139 8.46945 30.2035 8.46945H27.9827L27.6495 4.41534H32.8685C33.8124 4.41534 34.7007 3.75792 34.9228 2.82657C35.2559 1.56651 34.2566 0.416016 33.0351 0.416016Z" fill="url(#paint0_linear)"/>
<path d="M7.38489 24.9584C8.21772 24.9584 8.88397 24.301 8.88397 23.4792C8.88397 22.6574 8.21772 22 7.38489 22C6.55207 22 5.88582 22.6574 5.88582 23.4792C5.8303 24.301 6.55207 24.9584 7.38489 24.9584Z" fill="url(#paint1_linear)"/>
<path d="M21.8758 14.6041C21.8758 14.4945 22.32 14.0562 22.32 13.9466L21.5427 10.8239L22.32 9.01597C23.2638 10.1665 24.4853 7.09849 24.4853 7.09849C24.4853 7.09849 25.096 4.79751 24.2632 3.70181C23.4304 2.6061 20.4878 4.03052 20.4878 4.03052C20.4878 4.03052 22.8197 0.633834 34.7567 0.359908C35.9782 0.305122 37.2552 0.579048 38.3656 1.1269C41.6969 2.66089 48.637 6.44107 48.8591 11.043C49.1367 11.7005 50.1916 14.7684 49.9695 15.3711C49.7475 15.9737 48.8036 18.0008 48.4705 17.8912C48.1374 17.7816 41.5858 14.2206 38.6987 15.645C35.8116 17.0694 43.4736 21.6166 45.6944 20.74C47.9708 19.8635 48.3039 19.8635 48.415 20.1922C48.526 20.5209 49.8585 23.041 49.2478 24.8489C48.5815 26.6568 46.2496 31.5327 45.861 32.1353C45.4723 32.7928 45.4723 33.2858 42.9184 33.6145C40.3644 33.9433 39.4205 33.4502 37.6994 36.3538L42.4742 41.6132C42.2521 41.6132 19.766 39.8601 13.27 37.7782L17.6007 31.971L19.9326 28.6291L21.4316 25.068L21.8758 23.6984L22.7086 20.0826L23.0973 18.7677C23.0973 18.713 23.0973 18.713 23.0973 18.6582C22.8752 18.3295 21.9313 16.7407 21.8758 15.0424" fill="url(#paint2_linear)"/>
<path d="M41.1416 17.8367C41.1416 17.8367 45.1391 17.7819 45.3057 18.1654C45.4722 18.5489 44.9726 19.535 43.8066 19.3159C42.5851 19.1515 41.1416 17.8367 41.1416 17.8367Z" fill="url(#paint3_linear)"/>
<path d="M43.0297 33.6691L27.2617 29.7246L35.9785 37.1754L35.923 41.0652L42.4745 41.613L37.6997 36.3536C37.6997 36.3536 38.9212 34.2718 39.9761 34.0526C41.031 33.8335 43.0297 33.6691 43.0297 33.6691Z" fill="url(#paint4_linear)"/>
<path d="M21.043 12.4673C21.043 12.4673 22.542 14.1656 21.043 15.6448L30.0929 16.0831L21.043 12.4673Z" fill="url(#paint5_linear)"/>
<path d="M19.7102 25.4517C19.7102 25.4517 21.0983 26.7117 19.4326 28.5196L28.9823 27.3691L19.7102 25.4517Z" fill="url(#paint6_linear)"/>
<path d="M8.77309 12.2485H4.8866C3.8317 12.2485 2.94336 11.372 2.94336 10.3311C2.94336 9.29014 3.8317 8.41357 4.8866 8.41357H8.77309C9.828 8.41357 10.7163 9.29014 10.7163 10.3311C10.6608 11.4268 9.828 12.2485 8.77309 12.2485Z" fill="url(#paint7_linear)"/>
<defs>
<linearGradient id="paint0_linear" x1="2.58246" y1="-20.6329" x2="28.0394" y2="49.5146" gradientUnits="userSpaceOnUse">
<stop stop-color="#29A4DD"/>
<stop offset="1" stop-color="#3A55A0"/>
</linearGradient>
<linearGradient id="paint1_linear" x1="-2.09688" y1="0.283859" x2="14.953" y2="43.2094" gradientUnits="userSpaceOnUse">
<stop stop-color="#29A4DD"/>
<stop offset="1" stop-color="#3A55A0"/>
</linearGradient>
<linearGradient id="paint2_linear" x1="12.9263" y1="-24.4172" x2="38.3954" y2="45.7639" gradientUnits="userSpaceOnUse">
<stop stop-color="#29A4DD"/>
<stop offset="1" stop-color="#3A55A0"/>
</linearGradient>
<linearGradient id="paint3_linear" x1="27.3205" y1="-20.9145" x2="49.6435" y2="35.287" gradientUnits="userSpaceOnUse">
<stop stop-color="#29A4DD"/>
<stop offset="1" stop-color="#3A55A0"/>
</linearGradient>
<linearGradient id="paint4_linear" x1="31.3098" y1="21.6978" x2="40.8528" y2="47.4403" gradientUnits="userSpaceOnUse">
<stop stop-color="#29A4DD"/>
<stop offset="1" stop-color="#3A55A0"/>
</linearGradient>
<linearGradient id="paint5_linear" x1="15.7827" y1="13.4404" x2="47.6632" y2="17.4426" gradientUnits="userSpaceOnUse">
<stop stop-color="#29A4DD"/>
<stop offset="1" stop-color="#3A55A0"/>
</linearGradient>
<linearGradient id="paint6_linear" x1="16.6732" y1="22.1282" x2="33.8095" y2="35.6754" gradientUnits="userSpaceOnUse">
<stop stop-color="#29A4DD"/>
<stop offset="1" stop-color="#3A55A0"/>
</linearGradient>
<linearGradient id="paint7_linear" x1="-3.88187" y1="-18.3161" x2="21.5864" y2="51.8627" gradientUnits="userSpaceOnUse">
<stop stop-color="#29A4DD"/>
<stop offset="1" stop-color="#3A55A0"/>
</linearGradient>
</defs>
</svg>
