<svg width="33" height="38" viewBox="0 0 33 38" fill="none" xmlns="http://www.w3.org/2000/svg">
<path d="M2.48681 37.4509C1.29541 37.4509 0.32959 36.4851 0.32959 35.2937V2.9354C0.32959 1.744 1.29541 0.778128 2.48681 0.778128H16.2499C17.0699 0.772473 17.8223 1.23227 18.1913 1.96465L19.7445 5.09261H30.5306C31.722 5.09261 32.6878 6.05843 32.6878 7.24983V24.5076C32.6878 25.699 31.722 26.6648 30.5306 26.6648H18.9032C18.0909 26.6623 17.3488 26.2037 16.9833 25.4783L15.4301 22.3504H4.64402V35.2937C4.64402 36.4851 3.6782 37.4509 2.48681 37.4509ZM4.64402 5.09261V18.0359H17.5873L19.7445 22.3504H28.3734V9.40705H17.5873L15.4301 5.09261H4.64402Z" fill="#F3BD19"/>
</svg>
