<svg width="27" height="24" viewBox="0 0 27 24" fill="none" xmlns="http://www.w3.org/2000/svg">
<path d="M11.3785 17.5617H9.49951V16.6425C9.50365 13.0904 12.4455 10.2119 16.0758 10.2078H19.8337C23.464 10.2119 26.4058 13.0904 26.41 16.6425V17.5617H24.531V16.6425C24.5279 14.1053 22.4267 12.0493 19.8337 12.0463H16.0758C13.4828 12.0493 11.3816 14.1053 11.3785 16.6425V17.5617ZM17.9548 9.28858C15.3605 9.28858 13.2574 7.23079 13.2574 4.69239C13.2574 2.15398 15.3605 0.0961914 17.9548 0.0961914C20.549 0.0961914 22.6521 2.15398 22.6521 4.69239C22.649 7.22953 20.5477 9.28554 17.9548 9.28858ZM17.9548 1.93467C16.3982 1.93467 15.1363 3.16934 15.1363 4.69239C15.1363 6.21543 16.3982 7.4501 17.9548 7.4501C19.5113 7.4501 20.7732 6.21543 20.7732 4.69239C20.7732 3.16934 19.5113 1.93467 17.9548 1.93467Z" fill="#0C0B0B"/>
<path d="M4.6973 22.0559H5.92295V20.8303V19.9118C5.9256 18.0759 7.45352 16.5432 9.39535 16.5405C9.39559 16.5405 9.39584 16.5405 9.39609 16.5405H13.1511C13.1514 16.5405 13.1516 16.5405 13.1519 16.5405C15.0937 16.5432 16.6216 18.0759 16.6242 19.9118C16.6242 19.9121 16.6242 19.9123 16.6242 19.9125L16.6242 20.8303V22.0559H17.8499H19.7288H20.9545V20.8303V19.911L20.9545 19.9096C20.9503 16.2927 18.4074 13.2917 15.0137 12.4722C16.3406 11.4091 17.1944 9.79089 17.1966 7.96244V7.96094C17.1966 4.72061 14.5195 2.13909 11.2736 2.13909C8.0277 2.13909 5.35059 4.72061 5.35059 7.96094C5.35059 9.79016 6.20373 11.4094 7.53072 12.4729C4.13838 13.2934 1.59692 16.2937 1.59271 19.9096V19.911V20.8303V22.0559H2.81836H4.6973ZM9.68084 7.96094C9.68084 7.13982 10.3686 6.42888 11.2736 6.42888C12.1785 6.42888 12.8664 7.13982 12.8664 7.96094C12.8664 8.78206 12.1785 9.49301 11.2736 9.49301C10.3686 9.49301 9.68084 8.78206 9.68084 7.96094Z" fill="#0C0B0B" stroke="white" stroke-width="2.4513"/>
</svg>
