<svg width="29" height="28" viewBox="0 0 29 28" fill="none" xmlns="http://www.w3.org/2000/svg">
<path d="M14.4995 27.3332C6.9056 27.3332 0.749512 21.3636 0.749512 13.9998C0.749512 6.63604 6.9056 0.666504 14.4995 0.666504C22.0934 0.666504 28.2495 6.63604 28.2495 13.9998C28.2412 21.3603 22.09 27.3251 14.4995 27.3332ZM3.49951 14.2292C3.56457 20.0975 8.50604 24.8126 14.558 24.7812C20.61 24.7495 25.4989 19.9832 25.4989 14.1145C25.4989 8.24584 20.61 3.47954 14.558 3.44783C8.50604 3.41645 3.56457 8.13152 3.49951 13.9998V14.2292ZM11.7495 19.9998V7.99984L19.9995 13.9998L11.7495 19.9998Z" fill="white"/>
</svg>
