<svg width="60" height="52" viewBox="0 0 60 52" fill="none" xmlns="http://www.w3.org/2000/svg">
<path d="M51.4906 20.0154V33.5011L60 30.267L48.2087 0.652527L0 20.0154" fill="#F3BD19"/>
<path d="M53.9432 32.5693V17.5635H6.10602L2.45264 19.031V20.0154H51.4913V33.501L53.9432 32.5693Z" fill="black" fill-opacity="0.1"/>
<path d="M0 20.0154H51.4906V51.8905H0V20.0154Z" fill="#F3BD19"/>
<path d="M4.90381 30.6935C7.67786 29.8636 9.84813 27.6933 10.6781 24.9193H40.8124C41.6422 27.6935 43.8124 29.8637 46.5866 30.6935V41.2123C43.8124 42.0422 41.6422 44.2124 40.8124 46.9866H11.0336H10.6769C9.84721 44.2129 7.6774 42.0426 4.90381 41.2123V30.6935Z" fill="#FAFAFA"/>
<path d="M25.7456 42.0828C29.131 42.0828 31.8754 39.3384 31.8754 35.953C31.8754 32.5676 29.131 29.8232 25.7456 29.8232C22.3601 29.8232 19.6157 32.5676 19.6157 35.953C19.6157 39.3384 22.3601 42.0828 25.7456 42.0828Z" fill="#F3BD19"/>
<path d="M50.6407 20.0154L47.7339 12.537L47.6015 12.2072C44.7179 12.4629 41.8989 11.2508 40.1011 8.98166L39.7725 9.11406L13.4854 20.0154H50.6407Z" fill="#FAFAFA"/>
<path d="M19.3982 17.5635L13.4854 20.0154H50.6407L49.6881 17.5635H19.3982Z" fill="black" fill-opacity="0.1"/>
</svg>
