<svg width="40" height="40" viewBox="0 0 40 40" fill="none" xmlns="http://www.w3.org/2000/svg">
<path fill-rule="evenodd" clip-rule="evenodd" d="M39.9929 29.815V10.2304C39.9969 10.0991 39.9854 9.96864 39.9591 9.84167C39.8698 9.40379 39.6073 9.01454 39.223 8.76635C39.1236 8.70305 39.0186 8.65121 38.91 8.611L20.71 0.154965C20.2667 -0.0516551 19.7535 -0.0516551 19.307 0.154965L11.3814 3.83327C11.234 3.87819 11.0929 3.94352 10.9628 4.02759L1.05205 8.62726C0.955136 8.66557 0.861182 8.71311 0.771636 8.7697C0.473812 8.95997 0.249151 9.23625 0.12155 9.55471C0.0324202 9.77553 -0.0094991 10.0151 0.0018091 10.257V29.8116C0.0018091 30.4615 0.378391 31.048 0.968259 31.3213L19.2875 39.8327C19.5074 39.936 19.7474 39.9893 19.9873 39.9893L19.9982 39.9893L20.0074 39.9893C20.2473 39.9893 20.4873 39.936 20.7072 39.836L39.0264 31.3246C39.6163 31.0513 39.9929 30.4615 39.9929 29.815ZM11.8711 7.27772L5.61973 10.1772L19.9937 16.8556L26.0506 14.0415L11.8711 7.27772ZM31.6614 15.1087L36.6603 12.7854V28.7485L21.6737 35.7136V19.7506L28.3288 16.6575V21.6601C28.3288 22.5799 29.0753 23.3264 29.9951 23.3264C30.9149 23.3264 31.6614 22.5799 31.6614 21.6601V15.1087ZM29.973 12.2191L15.7948 5.45781L20.0068 3.50421L34.3726 10.1749L29.973 12.2191ZM18.321 35.7136L3.33439 28.7485V12.7855L18.321 19.7506V35.7136Z" fill="#F3BD19"/>
</svg>
