<svg width="75" height="75" viewBox="0 0 75 75" fill="none" xmlns="http://www.w3.org/2000/svg">
<path d="M73.1582 28.7749L67.4307 27.5298C66.9327 26.0049 66.3158 24.5176 65.5875 23.0849L68.7582 18.1529C69.3245 17.2716 69.2 16.1146 68.4598 15.3744L59.5371 6.45177C58.7969 5.71153 57.6399 5.58703 56.7587 6.15329L51.8266 9.32403C50.3939 8.59573 48.9066 7.97887 47.3818 7.48083L46.1367 1.75337C45.9144 0.730003 45.0081 0 43.9609 0H31.3427C30.2955 0 29.3892 0.730003 29.1669 1.75337L27.9218 7.48083C26.397 7.97887 24.9097 8.59573 23.477 9.32403L18.5449 6.15329C17.6637 5.58703 16.5067 5.71153 15.7665 6.45177L6.84386 15.3744C6.10362 16.1146 5.97912 17.2716 6.54538 18.1529L9.71612 23.0849C8.98782 24.5176 8.37095 26.0049 7.87292 27.5298L2.14546 28.7749C1.12209 28.9977 0.39209 29.9034 0.39209 30.9507V43.5688C0.39209 44.616 1.12209 45.5217 2.14546 45.7446L7.87292 46.9897C8.37095 48.5145 8.98782 50.0018 9.71612 51.4345L6.54538 56.3666C5.97912 57.2478 6.10362 58.4048 6.84386 59.145L15.7665 68.0677C16.5067 68.8079 17.6637 68.9324 18.5449 68.3661L23.477 65.1954C24.9097 65.9237 26.397 66.5406 27.9218 67.0386L29.1669 72.7661C29.3892 73.7894 30.2955 74.5194 31.3427 74.5194H43.9609C45.0081 74.5194 45.9144 73.7894 46.1367 72.7661L47.3818 67.0386C48.9066 66.5406 50.3939 65.9237 51.8266 65.1954L56.7587 68.3661C57.6399 68.9324 58.7969 68.8085 59.5371 68.0677L68.4598 59.145C69.2 58.4048 69.3245 57.2478 68.7582 56.3666L65.5875 51.4345C66.3158 50.0018 66.9327 48.5145 67.4307 46.9897L73.1582 45.7446C74.1815 45.5217 74.9115 44.616 74.9115 43.5688V30.9507C74.9115 29.9034 74.1815 28.9977 73.1582 28.7749ZM51.0119 37.2597C51.0119 44.6263 45.0184 50.6198 37.6518 50.6198C30.2853 50.6198 24.2917 44.6263 24.2917 37.2597C24.2917 29.8932 30.2853 23.8996 37.6518 23.8996C45.0184 23.8996 51.0119 29.8932 51.0119 37.2597Z" fill="#F3BD19"/>
</svg>
