<svg width="60" height="61" viewBox="0 0 60 61" fill="none" xmlns="http://www.w3.org/2000/svg">
<g clip-path="url(#clip0)">
<path d="M17.7012 15.4245C16.6661 15.4245 15.8271 14.5834 15.8271 13.5458V2.15017C15.8271 1.11254 16.6661 0.271473 17.7012 0.271473C18.7362 0.271473 19.5752 1.11254 19.5752 2.15017V13.5458C19.5752 14.5834 18.7362 15.4245 17.7012 15.4245Z" fill="#F3BD19"/>
<path d="M42.1499 15.4245C41.1149 15.4245 40.2759 14.5834 40.2759 13.5458V2.15017C40.2759 1.11254 41.1149 0.271473 42.1499 0.271473C43.185 0.271473 44.0239 1.11254 44.0239 2.15017V13.5458C44.0239 14.5834 43.185 15.4245 42.1499 15.4245Z" fill="#F3BD19"/>
<path d="M2.84131 26.3355V52.2576C2.84131 56.6766 6.42737 60.2716 10.8353 60.2716H49.0145C53.4224 60.2716 57.0085 56.6766 57.0085 52.2576V26.3355H2.84131Z" fill="#F3BD19"/>
<path d="M57.0084 22.5782V13.9833C57.0084 9.56441 53.4223 5.9694 49.0144 5.9694H47.7721V13.5458C47.7721 16.6537 45.2501 19.1819 42.15 19.1819C39.0499 19.1819 36.528 16.6537 36.528 13.5458V5.96928H23.3218V13.5457C23.3218 16.6536 20.7999 19.1818 17.6998 19.1818C14.5996 19.1818 12.0777 16.6536 12.0777 13.5457V5.96928H10.8353C6.42737 5.96928 2.84131 9.56429 2.84131 13.9832V22.578H57.0084V22.5782Z" fill="#F3BD19"/>
</g>
<defs>
<clipPath id="clip0">
<rect width="59.8507" height="60" fill="white" transform="translate(0 0.271484)"/>
</clipPath>
</defs>
</svg>
