<svg width="28" height="28" viewBox="0 0 28 28" fill="none" xmlns="http://www.w3.org/2000/svg">
<path d="M13.9998 27.6051C6.63604 27.6051 0.666504 21.6355 0.666504 14.2717C0.666504 6.90792 6.63604 0.938385 13.9998 0.938385C21.3636 0.938385 27.3332 6.90792 27.3332 14.2717C27.3251 21.6322 21.3603 27.597 13.9998 27.6051ZM13.9998 3.60505C8.1088 3.60505 3.33317 8.38068 3.33317 14.2717C3.33317 20.1628 8.1088 24.9384 13.9998 24.9384C19.8909 24.9384 24.6665 20.1628 24.6665 14.2717C24.6599 8.38342 19.8881 3.61167 13.9998 3.60505ZM20.6665 15.6051H12.6665V7.60505H15.3332V12.9384H20.6665V15.6051Z" fill="white"/>
</svg>
