<svg width="87" height="75" viewBox="0 0 87 75" fill="none" xmlns="http://www.w3.org/2000/svg">
<path d="M78.5647 0H40.9655C36.6144 0 33.0879 3.52715 33.0879 7.87764V26.3981C35.0754 27.386 37.2229 28.4542 39.2274 29.4506L42.2943 23.3143C44.1512 19.6037 48.678 18.0961 52.3873 19.9497C56.1045 21.8099 57.6108 26.3243 55.7499 30.0421L50.2829 40.9788C50.4278 42.4263 50.2992 43.8856 49.8911 45.2979H53.5006L43.9808 71.4753C43.416 73.028 44.5077 74.8399 46.3379 74.8399C47.361 74.8399 48.3234 74.2085 48.693 73.1886L58.8357 45.2979H60.5927L70.8386 73.1971C71.2114 74.2118 72.1712 74.8399 73.1937 74.8399C74.9037 74.8399 76.1573 73.1318 75.5455 71.4688L65.9344 45.2979H78.5647C82.9152 45.2979 86.4424 41.7708 86.4424 37.4203V7.87764C86.4424 3.52715 82.9152 0 78.5647 0V0ZM73.1924 34.5565H61.943C60.5588 34.5565 59.4357 33.4335 59.4357 32.0492C59.4357 30.6637 60.5588 29.542 61.943 29.542H73.1924C74.5779 29.542 75.6996 30.6637 75.6996 32.0492C75.6996 33.4335 74.5779 34.5565 73.1924 34.5565ZM73.1924 25.1562H61.943C60.5588 25.1562 59.4357 24.0345 59.4357 22.649C59.4357 21.2647 60.5588 20.1417 61.943 20.1417H73.1924C74.5779 20.1417 75.6996 21.2647 75.6996 22.649C75.6996 24.0345 74.5779 25.1562 73.1924 25.1562ZM73.1924 15.7572H46.3379C44.9523 15.7572 43.8306 14.6342 43.8306 13.25C43.8306 11.8658 44.9523 10.7427 46.3379 10.7427H73.1924C74.5779 10.7427 75.6996 11.8658 75.6996 13.25C75.6996 14.6342 74.5779 15.7572 73.1924 15.7572Z" fill="#F3BD19"/>
<path d="M44.9761 44.2224C45.4293 42.895 45.426 41.5082 45.0434 40.2428L51.2658 27.7992C51.8848 26.5606 51.3834 25.0542 50.1448 24.4353C48.9068 23.8156 47.4005 24.3177 46.7808 25.5563L41.4738 36.1691C38.3018 34.5897 33.4825 32.1934 29.6002 30.2627C25.9882 28.4665 23.4104 26.8557 19.0122 26.8557H16.7968C20.2215 26.8557 23.2778 25.2795 25.2784 22.8127C26.805 20.9355 27.7178 18.5432 27.7178 15.936C27.7178 9.90357 22.8286 5.0144 16.7955 5.0144C10.765 5.0144 5.87586 9.90357 5.87586 15.936C5.87586 18.8331 7.00413 21.4657 8.84475 23.4193C10.8349 25.5355 13.6614 26.8557 16.7949 26.8563C12.5939 26.8563 8.48694 28.5585 5.53242 31.5209C2.52043 34.525 0.861328 38.5275 0.861328 42.7912V50.8477C0.861328 54.3161 3.1133 57.2674 6.23236 58.3173V72.3319C6.23236 73.7167 7.35475 74.8391 8.73962 74.8391H24.8527C26.2376 74.8391 27.36 73.7167 27.36 72.3319V44.161C29.7373 45.3494 32.8603 46.9105 35.3871 48.1746C37.1586 49.06 39.2284 49.1397 41.0742 48.3888C42.9148 47.6314 44.3336 46.1238 44.9663 44.2518C44.9696 44.242 44.9729 44.2322 44.9761 44.2224Z" fill="#F3BD19"/>
</svg>
